<svg xmlns="http://www.w3.org/2000/svg" viewBox="0 0 480 90" width="480" height="90">
  <!-- Flame icon (left) -->
  <g transform="translate(8, 8) scale(0.65)">
    <path d="M 14 68 C 8 55, 2 42, 8 26 C 10 18, 16 10, 18 2 C 22 12, 24 26, 18 38 C 24 30, 26 18, 24 8 C 32 22, 34 40, 26 56 C 22 64, 14 68, 14 68 Z" fill="#ff0000"/>
    <path d="M 26 68 C 32 56, 38 42, 36 28 C 34 18, 28 10, 26 4 C 32 16, 38 30, 34 44 C 40 34, 42 20, 38 10 C 48 24, 50 42, 42 58 C 38 66, 26 68, 26 68 Z" fill="#cc0000"/>
  </g>

  <!-- Text "Crédit" white -->
  <text x="58" y="38" font-family="'Arial Black', Arial, sans-serif" font-size="26" font-weight="900" fill="white" letter-spacing="-0.5">Crédit</text>
  <!-- Text "PLUS" red -->
  <text x="60" y="64" font-family="'Arial Black', Arial, sans-serif" font-size="20" font-weight="900" fill="#ff0000" letter-spacing="3">PLUS</text>

  <!-- Separator line -->
  <line x1="58" y1="72" x2="200" y2="72" stroke="#ff0000" stroke-width="2.5"/>

  <!-- Circle with + (right) -->
  <!-- Outer arc -->
  <path d="M 208 44 A 34 34 0 1 1 234 16" fill="none" stroke="#ff0000" stroke-width="3.5" stroke-linecap="round"/>
  <!-- Middle arc -->
  <path d="M 208 44 A 24 24 0 1 1 228 22" fill="none" stroke="#ff0000" stroke-width="2.5" stroke-linecap="round"/>
  <!-- Small top-right arc -->
  <path d="M 228 18 A 18 18 0 0 1 246 44" fill="none" stroke="#ff0000" stroke-width="2" stroke-linecap="round"/>
  <!-- Plus sign -->
  <line x1="222" y1="32" x2="222" y2="56" stroke="#ff0000" stroke-width="5.5" stroke-linecap="round"/>
  <line x1="210" y1="44" x2="234" y2="44" stroke="#ff0000" stroke-width="5.5" stroke-linecap="round"/>
</svg>
