<svg xmlns="http://www.w3.org/2000/svg" viewBox="0 0 400 100" width="400" height="100">
  <!-- Flame icon -->
  <g transform="translate(10, 10)">
    <path d="M25 5 C20 15, 10 20, 12 35 C14 45, 22 50, 25 50 C28 50, 30 45, 28 38 C32 42, 33 48, 30 55 C35 50, 40 40, 35 25 C32 15, 27 8, 25 5Z" fill="#ff0000"/>
    <path d="M18 25 C15 32, 16 42, 20 47 C18 40, 20 33, 25 28 C22 32, 20 38, 22 44 C24 40, 25 35, 23 28Z" fill="#cc0000"/>
  </g>
  <!-- Text "Crédit" -->
  <text x="60" y="45" font-family="Arial, sans-serif" font-size="28" font-weight="bold" fill="white">Crédit</text>
  <!-- Text "PLUS" in red -->
  <text x="60" y="75" font-family="Arial, sans-serif" font-size="22" font-weight="bold" fill="#ff0000">PLUS</text>
  <!-- Horizontal line -->
  <line x1="60" y1="82" x2="250" y2="82" stroke="#ff0000" stroke-width="2"/>
  <!-- Circle with + -->
  <circle cx="270" cy="60" r="30" fill="none" stroke="#ff0000" stroke-width="3"/>
  <circle cx="270" cy="60" r="22" fill="none" stroke="#ff0000" stroke-width="2"/>
  <line x1="258" y1="60" x2="282" y2="60" stroke="#ff0000" stroke-width="4"/>
  <line x1="270" y1="48" x2="270" y2="72" stroke="#ff0000" stroke-width="4"/>
  <!-- Arc on top right of circle -->
  <path d="M 285 35 Q 310 45 305 70" fill="none" stroke="#ff0000" stroke-width="3" stroke-linecap="round"/>
</svg>
